<?xml version="1.0" encoding="UTF-8"?>
<svg width="64" height="64" viewBox="0 0 64 64" fill="none" xmlns="http://www.w3.org/2000/svg">
  <circle cx="32" cy="32" r="30" fill="url(#paint0_linear)"/>
  <path d="M24 28C24 29.1046 23.1046 30 22 30C20.8954 30 20 29.1046 20 28C20 26.8954 20.8954 26 22 26C23.1046 26 24 26.8954 24 28Z" fill="white"/>
  <path d="M44 28C44 29.1046 43.1046 30 42 30C40.8954 30 40 29.1046 40 28C40 26.8954 40.8954 26 42 26C43.1046 26 44 26.8954 44 28Z" fill="white"/>
  <path d="M32 40C37 40 41 36 41 32H23C23 36 27 40 32 40Z" fill="white"/>
  <defs>
    <linearGradient id="paint0_linear" x1="32" y1="2" x2="32" y2="62" gradientUnits="userSpaceOnUse">
      <stop stop-color="#60A5FA"/>
      <stop offset="1" stop-color="#3B82F6"/>
    </linearGradient>
  </defs>
</svg> 